<svg width="85" height="20" viewBox="0 0 85 20" fill="none" xmlns="http://www.w3.org/2000/svg">
<path d="M6.132 4.796H0.112V0.399999H17.668V4.796H11.676V20H6.132V4.796ZM31.1014 14.792H28.0774V20H22.5334V0.399999H31.4934C33.2668 0.399999 34.8068 0.698665 36.1134 1.296C37.4201 1.87467 38.4281 2.71467 39.1374 3.816C39.8468 4.89867 40.2014 6.17733 40.2014 7.652C40.2014 9.07067 39.8654 10.312 39.1934 11.376C38.5401 12.4213 37.5974 13.2427 36.3654 13.84L40.5934 20H34.6574L31.1014 14.792ZM34.6014 7.652C34.6014 6.73733 34.3121 6.028 33.7334 5.524C33.1548 5.02 32.2961 4.768 31.1574 4.768H28.0774V10.508H31.1574C32.2961 10.508 33.1548 10.2653 33.7334 9.78C34.3121 9.276 34.6014 8.56667 34.6014 7.652ZM65.94 0.399999L57.54 20H52.08L43.708 0.399999H49.7L55.02 13.168L60.452 0.399999H65.94ZM69.8873 0.399999H75.4313V15.604H84.7833V20H69.8873V0.399999Z" fill="white"/>
</svg>
